<?xml version="1.0" encoding="utf-8"?>
<!-- Created with "sPlan" (http://www.abacom-online.de) -->
<svg version="1.1" baseProfile="full"
xmlns="http://www.w3.org/2000/svg"
width="2210" height="820">
<title>power_scheme</title>
<defs>
<style type="text/css">
<![CDATA[
polyline {stroke-linecap:round; stroke-linejoin:round}
polygon {stroke-linecap:round; stroke-linejoin:round}
path {stroke-linecap:round; stroke-linejoin:round}
circle {stroke-linecap:round; stroke-linejoin:round}
]]>
</style>
</defs>
<path fill="none" stroke="rgb(0,0,0)" stroke-width="2" style="stroke-linecap:square; stroke-linejoin:miter" d=" M 300 40 L 590 40 590 300 300 300 300 40" />
<text x="390.40" y="152.00" font-family ="Arial" font-size ="28pt" font-weight="normal" font-style="normal" fill="rgb(0,0,0)" transform=" rotate(0.000) scale(1.000,1.000)">Buck</text>
<text x="355.40" y="192.00" font-family ="Arial" font-size ="28pt" font-weight="normal" font-style="normal" fill="rgb(0,0,0)" transform=" rotate(0.000) scale(1.000,1.000)">converter</text>
<polyline points="80.00 170.00 300.00 170.00" fill="none" stroke="rgb(0,0,0)" stroke-width="4" />
<polygon points="266.00 179.00 300.00 170.00 266.00 161.00" fill="rgb(0,0,0)" stroke="rgb(0,0,0)" stroke-width="4" />
<text x="40.00" y="152.00" font-family ="Arial" font-size ="28pt" font-weight="normal" font-style="normal" fill="rgb(0,0,0)" transform=" rotate(0.000) scale(1.000,1.000)">19..100V DC</text>
<polyline points="590.00 170.00 990.00 170.00" fill="none" stroke="rgb(0,0,0)" stroke-width="4" />
<polygon points="956.00 179.00 990.00 170.00 956.00 161.00" fill="rgb(0,0,0)" stroke="rgb(0,0,0)" stroke-width="4" />
<path fill="none" stroke="rgb(0,0,0)" stroke-width="2" style="stroke-linecap:square; stroke-linejoin:miter" d=" M 990 40 L 1280 40 1280 300 990 300 990 40" />
<text x="1080.40" y="152.00" font-family ="Arial" font-size ="28pt" font-weight="normal" font-style="normal" fill="rgb(0,0,0)" transform=" rotate(0.000) scale(1.000,1.000)">Buck</text>
<text x="1045.40" y="192.00" font-family ="Arial" font-size ="28pt" font-weight="normal" font-style="normal" fill="rgb(0,0,0)" transform=" rotate(0.000) scale(1.000,1.000)">converter</text>
<path fill="rgb(255,255,255)" stroke="rgb(0,0,0)" stroke-width="2" style="stroke-linecap:square; stroke-linejoin:miter" d=" M 1468 151 L 1562 151 1562 189 1468 189 1468 151" />
<polyline points="1430.00 170.00 1562.17 170.00" fill="none" stroke="rgb(0,0,0)" stroke-width="2" />
<polyline points="1562.17 170.00 1599.93 170.00" fill="none" stroke="rgb(0,0,0)" stroke-width="2" />
<text x="1769.16" y="226.00" font-family ="Arial" font-size ="31pt" font-weight="normal" font-style="italic" fill="rgb(0,0,0)" transform=" rotate(0.000) scale(0.842,1.000)">1A</text>
<polyline points="1280.00 170.00 1430.00 170.00" fill="none" stroke="rgb(0,0,0)" stroke-width="4" />
<polyline points="1599.93 170.00 1890.00 170.00" fill="none" stroke="rgb(0,0,0)" stroke-width="4" />
<polygon points="1856.00 179.00 1890.00 170.00 1856.00 161.00" fill="rgb(0,0,0)" stroke="rgb(0,0,0)" stroke-width="4" />
<text x="1610.00" y="142.00" font-family ="Arial" font-size ="28pt" font-weight="normal" font-style="normal" fill="rgb(0,0,0)" transform=" rotate(0.000) scale(1.000,1.000)">5V, 0.5 A DC</text>
<text x="1910.00" y="182.00" font-family ="Arial" font-size ="28pt" font-weight="normal" font-style="normal" fill="rgb(0,0,0)" transform=" rotate(0.000) scale(1.000,1.000)">UAVCAN BEC</text>
<polyline points="760.00 170.00 760.00 490.00 990.00 490.00" fill="none" stroke="rgb(0,0,0)" stroke-width="4" />
<polygon points="956.00 499.00 990.00 490.00 956.00 481.00" fill="rgb(0,0,0)" stroke="rgb(0,0,0)" stroke-width="4" />
<polyline points="760.00 490.00 760.00 740.00 990.00 740.00" fill="none" stroke="rgb(0,0,0)" stroke-width="4" />
<polygon points="956.00 749.00 990.00 740.00 956.00 731.00" fill="rgb(0,0,0)" stroke="rgb(0,0,0)" stroke-width="4" />
<path fill="none" stroke="rgb(0,0,0)" stroke-width="2" style="stroke-linecap:square; stroke-linejoin:miter" d=" M 990 340 L 1280 340 1280 600 990 600 990 340" />
<text x="1080.40" y="452.00" font-family ="Arial" font-size ="28pt" font-weight="normal" font-style="normal" fill="rgb(0,0,0)" transform=" rotate(0.000) scale(1.000,1.000)">Buck</text>
<text x="1045.40" y="492.00" font-family ="Arial" font-size ="28pt" font-weight="normal" font-style="normal" fill="rgb(0,0,0)" transform=" rotate(0.000) scale(1.000,1.000)">converter</text>
<polyline points="1280.00 480.00 1610.00 480.00" fill="none" stroke="rgb(0,0,0)" stroke-width="4" />
<polygon points="1576.00 489.00 1610.00 480.00 1576.00 471.00" fill="rgb(0,0,0)" stroke="rgb(0,0,0)" stroke-width="4" />
<text x="1330.00" y="462.00" font-family ="Arial" font-size ="28pt" font-weight="normal" font-style="normal" fill="rgb(0,0,0)" transform=" rotate(0.000) scale(1.000,1.000)">3.3V, 0.4 A DC</text>
<text x="1630.00" y="492.00" font-family ="Arial" font-size ="28pt" font-weight="normal" font-style="normal" fill="rgb(0,0,0)" transform=" rotate(0.000) scale(1.000,1.000)">MCU and logic</text>
<text x="1020.00" y="752.00" font-family ="Arial" font-size ="28pt" font-weight="normal" font-style="normal" fill="rgb(0,0,0)" transform=" rotate(0.000) scale(1.000,1.000)">MOSFET Drivers power</text>
<text x="660.00" y="162.00" font-family ="Arial" font-size ="28pt" font-weight="normal" font-style="normal" fill="rgb(0,0,0)" transform=" rotate(0.000) scale(1.000,1.000)">12 V, 1 A DC</text>
</svg>
